<svg xmlns="http://www.w3.org/2000/svg" viewBox="0 13.279999732971191 210.27999877929688 34.720001220703125" data-asc="0.9599609375" width="210.27999877929688" height="34.720001220703125"><defs/><g fill="#000000"><g transform="translate(0, 0)"><path d="M0 13.28L5.15 13.28L5.15 27.37L23.14 27.37L23.14 13.28L28.27 13.28L28.27 48.00L23.14 48.00L23.14 32.50L5.15 32.50L5.15 48.00L0 48.00L0 13.28ZM34.38 31.84Q34.38 29.32 35.61 27.25Q36.84 25.17 38.92 23.94Q40.99 22.71 43.51 22.71L49.02 22.71Q51.54 22.71 53.61 23.94Q55.69 25.17 56.92 27.25Q58.15 29.32 58.15 31.84L58.15 38.87Q58.15 41.38 56.92 43.46Q55.69 45.53 53.61 46.77Q51.54 48.00 49.02 48.00L43.51 48.00Q40.99 48.00 38.92 46.77Q36.84 45.53 35.61 43.46Q34.38 41.38 34.38 38.87L34.38 31.84M39.53 38.82Q39.53 40.48 40.70 41.66Q41.87 42.85 43.51 42.85L49.02 42.85Q50.68 42.85 51.84 41.66Q53.00 40.48 53.00 38.82L53.00 31.88Q53.00 30.22 51.84 29.04Q50.68 27.86 49.02 27.86L43.51 27.86Q41.87 27.86 40.70 29.04Q39.53 30.22 39.53 31.88L39.53 38.82ZM63.77 29.79Q63.77 27.83 64.76 26.22Q65.75 24.61 67.40 23.66Q69.04 22.71 71.04 22.71L76.68 22.71L76.68 27.83L71.04 27.83Q70.17 27.83 69.54 28.43Q68.92 29.03 68.92 29.88L68.92 48.00L63.77 48.00L63.77 29.79ZM81.32 27.93Q81.32 25.76 82.91 24.23Q84.50 22.71 86.72 22.71L97.27 22.71Q99.29 22.71 100.94 23.69Q102.59 24.68 103.58 26.35Q104.57 28.03 104.57 30.05L104.57 30.76Q104.57 32.76 103.58 34.41Q102.59 36.06 100.94 37.05Q99.29 38.04 97.27 38.04L89.40 38.04L89.40 32.91L97.31 32.91Q98.19 32.91 98.82 32.28Q99.44 31.64 99.44 30.74L99.44 30.05Q99.44 29.13 98.82 28.49Q98.19 27.86 97.31 27.86L86.47 27.86L86.47 40.84Q86.47 41.67 87.04 42.26Q87.60 42.85 88.40 42.85L102.78 42.85L102.78 48.00L88.40 48.00Q86.45 48.00 84.84 47.03Q83.23 46.07 82.28 44.45Q81.32 42.82 81.32 40.87L81.32 27.93ZM110.18 13.28L115.33 13.28L115.33 32.40L117.07 32.40L126.22 22.71L132.91 22.71L121.36 34.96L133.94 48.00L126.73 48.00L116.60 37.55L115.33 37.55L115.33 48.00L110.18 48.00L110.18 13.28ZM138.09 13.28L142.80 13.28L154.00 26.98L165.21 13.28L169.92 13.28L169.92 48.00L164.77 48.00L164.77 22.05L156.15 32.50L151.88 32.50L143.24 22.05L143.24 48.00L138.09 48.00L138.09 13.28ZM176.03 31.79Q176.03 29.27 177.26 27.22Q178.49 25.17 180.57 23.94Q182.64 22.71 185.16 22.71L199.27 22.71L199.27 48.00L194.12 48.00L194.12 27.86L185.16 27.86Q183.52 27.86 182.35 29.02Q181.18 30.18 181.18 31.84L181.18 38.82Q181.18 40.48 182.35 41.66Q183.52 42.85 185.16 42.85L191.19 42.85L191.19 48.00L185.16 48.00Q182.64 48.00 180.57 46.77Q178.49 45.53 177.26 43.46Q176.03 41.38 176.03 38.87L176.03 31.79ZM205.13 13.28L210.28 13.28L210.28 48.00L205.13 48.00L205.13 13.28Z"/></g></g></svg>